<svg xmlns="http://www.w3.org/2000/svg" viewBox="0 0 388.7 107.7"><path fill="#fff" d="M76.9733314 102.2399968V89.43999712c11.55999972 5.1733332 21.22666614 7.74666648 29.02666595 7.74666648 4.0799999 0 7.78666647-.66666665 11.13333305-2.01333329 3.38666659-1.34666663 6.06666652-3.58666657 8.02666647-6.73333316 2.01333328-3.18666659 3.0266666-9.95999975 3.0266666-20.34666616V11.95999906h-27.75999931V.01333269h44.23999889v68.41333163c0 11.13333305-1.91999995 19.14666618-4.94666654 24.0399994-2.97333326 4.8933332-7.15999982 8.66666644-12.55999969 11.31999971-5.4133332 2.59999994-12.33333302 3.90666657-20.75999948 3.90666657-9.43999976 0-19.25333285-1.81333329-29.42666593-5.4533332"/><path fill="#fff" d="M33.02666584 23.83999876H45.7733322l9.78666642 36.71999909 12.14666636-36.71999909H78.4666647l12.2799997 36.71999909 9.69333309-36.71999909h12.74666635L97.89333089 81.346664H85.47999786L72.97333151 44.15999826 60.6933318 81.34666399H48.3999988L33.02666584 23.83999876"/><path fill="#fff" d="M0-6.4e-7h45.02666554v11.94666637H16.45333292v77.47999806h28.57333262v12.79999968H0V-6.4e-7"/><path fill="#fff" d="M161.41 0.37L164.90 13.58L167.84 13.58L170.04 4.59L170.08 4.59L172.32 13.58L175.21 13.58L178.76 0.37L175.91 0.37L173.75 9.47L173.71 9.47L171.45 0.37L168.73 0.37L166.44 9.36L166.40 9.36L164.31 0.37ZM180.00 0.37L180.00 13.58L182.90 13.58L182.90 0.37ZM185.36 0.37L185.36 13.58L188.27 13.58L188.27 8.42L191.19 8.42C193.02 8.42 193.34 9.43 193.47 11.28C193.54 12.32 193.61 13.08 193.84 13.58L196.74 13.58C196.44 13.15 196.28 12.41 196.22 11.16C196.17 9.92 196.11 7.88 194.26 7.36L194.26 7.33C195.65 6.77 196.35 5.68 196.35 4.01C196.35 1.98 194.82 0.37 192.49 0.37ZM188.27 6.35L188.27 2.63L191.45 2.63C192.73 2.63 193.45 3.14 193.45 4.46C193.45 5.85 192.69 6.35 191.47 6.35ZM197.26 0.37L197.26 2.81L201.22 2.81L201.22 13.58L204.12 13.58L204.12 2.81L208.08 2.81L208.08 0.37ZM214.06 0.06C211.63 0.06 209.12 1.37 209.12 4.03C209.12 5.72 210.01 6.83 212.00 7.49C212.85 7.77 213.69 7.95 214.67 8.21C216.30 8.62 216.98 9.16 216.98 9.99C216.98 11.19 215.72 11.64 214.39 11.64C213.02 11.64 211.49 11.06 211.49 9.19L208.67 9.19L208.67 9.29C208.67 12.56 211.54 13.89 214.30 13.89C217.81 13.89 219.79 12.15 219.79 9.66C219.79 7.84 218.70 6.81 217.33 6.25C216.74 6.01 216.05 5.85 215.44 5.70C212.48 4.94 211.93 4.77 211.93 3.81C211.93 2.77 212.87 2.31 213.95 2.31C215.67 2.31 216.44 2.98 216.54 4.31L219.35 4.31C219.35 1.31 216.89 0.06 214.06 0.06ZM227.34 0.06C223.25 0.06 220.85 3.13 220.85 7.03C220.85 10.90 223.31 13.89 227.34 13.89C230.54 13.89 232.85 11.82 233.15 8.49L230.34 8.49C230.10 10.38 229.00 11.45 227.34 11.45C224.92 11.45 223.75 9.51 223.75 7.03C223.75 4.37 224.97 2.50 227.34 2.50C228.78 2.50 230.02 3.48 230.23 4.81L233.04 4.81C232.70 1.83 230.30 0.06 227.34 0.06ZM235.04 0.37L235.04 13.58L237.94 13.58L237.94 7.88L243.29 7.88L243.29 13.58L246.19 13.58L246.19 0.37L243.29 0.37L243.29 5.44L237.94 5.44L237.94 0.37ZM252.26 0.37L247.25 13.58L250.19 13.58L251.22 10.64L256.16 10.64L257.16 13.58L260.18 13.58L255.24 0.37ZM253.74 3.63L255.40 8.47L251.98 8.47L253.70 3.63ZM261.23 0.37L261.23 13.58L264.14 13.58L264.14 8.12L269.67 8.12L269.67 5.86L264.14 5.86L264.14 2.81L270.52 2.81L270.52 0.37ZM271.07 0.37L271.07 2.81L275.03 2.81L275.03 13.58L277.94 13.58L277.94 2.81L281.90 2.81L281.90 0.37ZM287.87 0.06C285.45 0.06 282.93 1.37 282.93 4.03C282.93 5.72 283.82 6.83 285.82 7.49C286.67 7.77 287.50 7.95 288.48 8.21C290.11 8.62 290.79 9.16 290.79 9.99C290.79 11.19 289.54 11.64 288.20 11.64C286.84 11.64 285.30 11.06 285.30 9.19L282.49 9.19L282.49 9.29C282.49 12.56 285.36 13.89 288.11 13.89C291.63 13.89 293.61 12.15 293.61 9.66C293.61 7.84 292.52 6.81 291.15 6.25C290.55 6.01 289.87 5.85 289.26 5.70C286.30 4.94 285.74 4.77 285.74 3.81C285.74 2.77 286.69 2.31 287.76 2.31C289.48 2.31 290.26 2.98 290.35 4.31L293.16 4.31C293.16 1.31 290.70 0.06 287.87 0.06ZM300.06 0.37L300.06 9.40C300.06 10.38 299.97 11.45 298.53 11.45C297.42 11.45 296.84 10.86 296.84 9.31L296.84 8.66L294.22 8.66L294.22 9.84C294.22 12.30 295.92 13.89 298.60 13.89C301.51 13.89 302.97 12.32 302.97 9.43L302.97 0.37ZM305.37 0.37L305.37 8.64C305.37 11.93 307.22 13.89 311.00 13.89C314.73 13.89 316.64 11.93 316.64 8.64L316.64 0.37L313.73 0.37L313.73 8.64C313.73 10.58 313.03 11.45 311.00 11.45C309.13 11.45 308.28 10.58 308.28 8.64L308.28 0.37ZM319.04 0.37L319.04 13.58L321.76 13.58L321.76 4.74L321.80 4.74L327.30 13.58L330.20 13.58L330.20 0.37L327.48 0.37L327.48 9.23L327.44 9.23L321.93 0.37ZM332.66 0.37L332.66 13.58L335.56 13.58L335.56 0.37ZM343.95 0.06C339.86 0.06 337.45 3.11 337.45 7.03C337.45 10.88 339.91 13.89 343.95 13.89C348.00 13.89 350.44 10.88 350.44 7.03C350.44 3.03 347.96 0.06 343.95 0.06ZM340.36 7.03C340.36 4.48 341.50 2.50 343.93 2.50C346.41 2.50 347.53 4.50 347.53 7.03C347.53 9.43 346.41 11.45 343.95 11.45C341.52 11.45 340.36 9.49 340.36 7.03ZM352.33 0.37L352.33 13.58L355.23 13.58L355.23 8.42L358.15 8.42C359.98 8.42 360.30 9.43 360.43 11.28C360.50 12.32 360.58 13.08 360.80 13.58L363.70 13.58C363.41 13.15 363.24 12.41 363.19 11.16C363.13 9.92 363.07 7.88 361.22 7.36L361.22 7.33C362.61 6.77 363.31 5.68 363.31 4.01C363.31 1.98 361.78 0.37 359.45 0.37ZM355.23 6.35L355.23 2.63L358.41 2.63C359.69 2.63 360.41 3.14 360.41 4.46C360.41 5.85 359.65 6.35 358.43 6.35ZM365.59 0.37L365.59 13.58L375.62 13.58L375.62 11.14L368.49 11.14L368.49 7.90L374.90 7.90L374.90 5.64L368.49 5.64L368.49 2.81L375.47 2.81L375.47 0.37ZM377.49 0.37L377.49 13.58L380.21 13.58L380.21 4.74L380.24 4.74L385.74 13.58L388.64 13.58L388.64 0.37L385.92 0.37L385.92 9.23L385.88 9.23L380.37 0.37Z"/><path fill="#fff" d="M162.63 22.41L162.63 35.62L165.53 35.62L165.53 30.16L171.06 30.16L171.06 27.90L165.53 27.90L165.53 24.85L171.91 24.85L171.91 22.41ZM179.42 22.10C175.34 22.10 172.93 25.15 172.93 29.07C172.93 32.92 175.39 35.93 179.42 35.93C183.48 35.93 185.92 32.92 185.92 29.07C185.92 25.07 183.44 22.10 179.42 22.10ZM175.84 29.07C175.84 26.52 176.98 24.54 179.41 24.54C181.88 24.54 183.01 26.54 183.01 29.07C183.01 31.48 181.88 33.49 179.42 33.49C177.00 33.49 175.84 31.53 175.84 29.07ZM187.80 22.41L187.80 35.62L190.71 35.62L190.71 30.46L193.63 30.46C195.46 30.46 195.78 31.48 195.91 33.33C195.98 34.36 196.06 35.12 196.28 35.62L199.18 35.62C198.89 35.19 198.72 34.45 198.66 33.20C198.61 31.96 198.55 29.92 196.70 29.40L196.70 29.37C198.09 28.81 198.79 27.72 198.79 26.05C198.79 24.02 197.26 22.41 194.93 22.41ZM190.71 28.39L190.71 24.67L193.89 24.67C195.17 24.67 195.89 25.19 195.89 26.50C195.89 27.89 195.13 28.39 193.91 28.39ZM206.99 22.10C202.90 22.10 200.50 25.17 200.50 29.07C200.50 32.94 202.96 35.93 206.99 35.93C210.19 35.93 212.50 33.86 212.80 30.53L209.99 30.53C209.75 32.42 208.65 33.49 206.99 33.49C204.57 33.49 203.40 31.55 203.40 29.07C203.40 26.41 204.62 24.54 206.99 24.54C208.43 24.54 209.67 25.52 209.88 26.85L212.69 26.85C212.35 23.87 209.95 22.10 206.99 22.10ZM214.69 22.41L214.69 35.62L217.59 35.62L217.59 29.92L222.94 29.92L222.94 35.62L225.84 35.62L225.84 22.41L222.94 22.41L222.94 27.48L217.59 27.48L217.59 22.41ZM228.30 22.41L228.30 35.62L231.21 35.62L231.21 29.92L236.55 29.92L236.55 35.62L239.46 35.62L239.46 22.41L236.55 22.41L236.55 27.48L231.21 27.48L231.21 22.41ZM241.92 22.41L241.92 35.62L251.94 35.62L251.94 33.18L244.82 33.18L244.82 29.94L251.22 29.94L251.22 27.68L244.82 27.68L244.82 24.85L251.80 24.85L251.80 22.41ZM253.81 22.41L253.81 35.62L256.72 35.62L256.72 22.41ZM259.18 22.41L259.18 35.62L261.90 35.62L261.90 26.35L261.93 26.35L265.17 35.62L267.41 35.62L270.65 26.26L270.68 26.26L270.68 35.62L273.40 35.62L273.40 22.41L269.32 22.41L266.39 31.49L266.36 31.49L263.27 22.41Z"/></svg>